<svg width="100" height="100" viewBox="0 0 100 100" fill="none" xmlns="http://www.w3.org/2000/svg">
<rect width="100" height="100" rx="10" fill="url(#paint0_linear_17_61)"/>
<path d="M76.985 64.125C72.1156 74.115 61.8612 81 50 81C38.1387 81 27.8844 74.115 23.0169 64.125H18.8975C24.0162 76.245 36.0162 84.75 50 84.75C63.9837 84.75 75.9819 76.245 81.1025 64.125H76.985ZM28.2144 30.375C33.6819 24.6 41.42 21 50 21C58.58 21 66.3181 24.6 71.7856 30.375H76.7169C70.5444 22.3913 60.8731 17.25 50 17.25C39.1269 17.25 29.4556 22.3913 23.2831 30.375H28.2144Z" fill="white"/>
<path d="M60.0313 68.6944C60.262 68.6082 60.4735 68.4774 60.6536 68.3095C60.8338 68.1416 60.9791 67.9399 61.0813 67.7158C61.1835 67.4917 61.2406 67.2497 61.2493 67.0035C61.258 66.7574 61.2181 66.512 61.1319 66.2813C61.0457 66.0505 60.9149 65.8391 60.747 65.6589C60.5791 65.4787 60.3773 65.3334 60.1533 65.2312C59.9292 65.129 59.6872 65.0719 59.441 65.0632C59.1949 65.0546 58.9495 65.0945 58.7188 65.1806C54.8563 66.6206 52.1056 67.3294 49.5744 67.3594C47.0863 67.3913 44.6469 66.7688 41.4275 65.2425C40.978 65.0297 40.4623 65.0041 39.9939 65.1715C39.5255 65.3389 39.1428 65.6855 38.93 66.135C38.7172 66.5846 38.6916 67.1002 38.859 67.5686C39.0264 68.037 39.373 68.4197 39.8225 68.6325C43.3663 70.3106 46.3831 71.1488 49.6213 71.1094C52.8144 71.07 56.0581 70.1756 60.0313 68.6944Z" fill="white"/>
<path d="M79.0625 44.125H76.35C74.8 39.475 70.5375 36.375 65.5 36.375C60.4625 36.375 56.2 39.8625 54.65 44.5125C53.4875 42.9625 51.9375 42.1875 50 42.1875C47.0938 42.1875 46.5125 42.9625 45.35 44.5125C43.8 39.8625 39.5375 36.375 34.5 36.375C29.4625 36.375 25.2 39.8625 23.65 44.125H20.9375C19.775 44.125 19 44.9 19 46.0625C19 47.225 19.775 48 20.9375 48H22.875C22.875 54.5875 27.9125 59.625 34.5 59.625C40.3125 59.625 44.9625 55.3625 46.125 49.9375C47.2875 49.9375 48.0625 49.1625 48.0625 48C48.0625 46.8375 48.8375 46.0625 50 46.0625C51.1625 46.0625 51.9375 46.8375 51.9375 48C51.9375 49.1625 52.7125 49.9375 53.875 49.9375C54.65 55.3625 59.6875 59.625 65.5 59.625C72.0875 59.625 77.125 54.5875 77.125 48H79.0625C80.225 48 81 47.225 81 46.0625C81 44.9 80.225 44.125 79.0625 44.125ZM34.5 55.75C30.2375 55.75 26.75 52.2625 26.75 48C26.75 43.7375 30.2375 40.25 34.5 40.25C38.7625 40.25 42.25 43.7375 42.25 48C42.25 52.2625 38.7625 55.75 34.5 55.75ZM65.5 55.75C61.2375 55.75 57.75 52.2625 57.75 48C57.75 43.7375 61.2375 40.25 65.5 40.25C69.7625 40.25 73.25 43.7375 73.25 48C73.25 52.2625 69.7625 55.75 65.5 55.75Z" fill="white"/>
<path d="M14.6217 42.8859C10.567 34.8508 17.5135 33.8751 21.4935 34.3916C14.2481 44.2987 16.853 55.6129 19.061 60.0315C5.45785 61.5171 10.4335 49.2201 14.6217 42.8859Z" stroke="white" stroke-width="3" stroke-linecap="round"/>
<path d="M85.8738 42.8859C89.9285 34.8508 82.9821 33.8751 79.002 34.3916C86.2474 44.2987 83.6426 55.6129 81.4345 60.0315C95.0377 61.5171 90.062 49.2201 85.8738 42.8859Z" stroke="white" stroke-width="3" stroke-linecap="round"/>
<defs>
<linearGradient id="paint0_linear_17_61" x1="50" y1="0" x2="50" y2="100" gradientUnits="userSpaceOnUse">
<stop stop-color="#00C6EB"/>
<stop offset="1" stop-color="#0687E5"/>
</linearGradient>
</defs>
</svg>
