<svg width="100" height="100" viewBox="0 0 100 100" fill="none" xmlns="http://www.w3.org/2000/svg">
<rect width="100" height="100" rx="10" fill="url(#paint0_linear_1_9)"/>
<path d="M76.985 63.125C72.1156 73.115 61.8612 80 50 80C38.1387 80 27.8844 73.115 23.0169 63.125H18.8975C24.0162 75.245 36.0162 83.75 50 83.75C63.9837 83.75 75.9819 75.245 81.1025 63.125H76.985ZM28.2144 29.375C33.6819 23.6 41.42 20 50 20C58.58 20 66.3181 23.6 71.7856 29.375H76.7169C70.5444 21.3913 60.8731 16.25 50 16.25C39.1269 16.25 29.4556 21.3913 23.2831 29.375H28.2144ZM33.125 50C35.1969 50 36.875 47.9 36.875 45.3125C36.875 42.725 35.1969 40.625 33.125 40.625C31.0531 40.625 29.375 42.725 29.375 45.3125C29.375 47.9 31.0531 50 33.125 50ZM70.625 45.3125C70.625 47.9 68.9469 50 66.875 50C64.8031 50 63.125 47.9 63.125 45.3125C63.125 42.725 64.8031 40.625 66.875 40.625C68.9469 40.625 70.625 42.725 70.625 45.3125Z" fill="white"/>
<path fill-rule="evenodd" clip-rule="evenodd" d="M47.5306 41.3375C47.5898 40.7253 47.5734 40.1082 47.4819 39.5H52.5181C52.4266 40.1082 52.4102 40.7253 52.4694 41.3375L53.5419 52.5875C53.7191 54.4445 54.582 56.1689 55.9622 57.4239C57.3424 58.679 59.1408 59.3746 61.0063 59.375H76.25C78.2391 59.375 80.1468 58.5848 81.5533 57.1783C82.9598 55.7718 83.75 53.8641 83.75 51.875V42.5H85.625V33.125H59.9375C57.6425 33.125 55.6063 34.1488 54.2375 35.75H45.7625C45.0592 34.9258 44.1852 34.2642 43.201 33.811C42.2169 33.3577 41.146 33.1237 40.0625 33.125H14.375V42.5H16.25V51.875C16.25 53.8641 17.0402 55.7718 18.4467 57.1783C19.8532 58.5848 21.7609 59.375 23.75 59.375H38.9937C40.8592 59.3746 42.6576 58.679 44.0378 57.4239C45.418 56.1689 46.2809 54.4445 46.4581 52.5875L47.5306 41.3375ZM23.75 36.875C22.7554 36.875 21.8016 37.2701 21.0984 37.9734C20.3951 38.6766 20 39.6304 20 40.625V51.875C20 52.8696 20.3951 53.8234 21.0984 54.5267C21.8016 55.2299 22.7554 55.625 23.75 55.625H38.9937C39.9263 55.6246 40.8253 55.2766 41.5152 54.6491C42.2051 54.0217 42.6364 53.1596 42.725 52.2313L43.7975 40.9813C43.8472 40.461 43.7875 39.936 43.6224 39.4401C43.4572 38.9443 43.1902 38.4884 42.8385 38.1017C42.4869 37.7151 42.0582 37.4062 41.5802 37.195C41.1021 36.9837 40.5852 36.8747 40.0625 36.875H23.75ZM56.2025 40.9813C56.1528 40.461 56.2125 39.936 56.3776 39.4401C56.5428 38.9443 56.8098 38.4884 57.1615 38.1017C57.5131 37.7151 57.9418 37.4062 58.4198 37.195C58.8979 36.9837 59.4148 36.8747 59.9375 36.875H76.25C77.2446 36.875 78.1984 37.2701 78.9017 37.9734C79.6049 38.6766 80 39.6304 80 40.625V51.875C80 52.8696 79.6049 53.8234 78.9017 54.5267C78.1984 55.2299 77.2446 55.625 76.25 55.625H61.0063C60.0737 55.6246 59.1747 55.2766 58.4848 54.6491C57.7949 54.0217 57.3636 53.1596 57.275 52.2313L56.2025 40.9813Z" fill="white"/>
<path d="M60.0313 67.6944C60.262 67.6082 60.4735 67.4774 60.6536 67.3095C60.8338 67.1416 60.9791 66.9399 61.0813 66.7158C61.1835 66.4917 61.2406 66.2497 61.2493 66.0035C61.258 65.7574 61.2181 65.512 61.1319 65.2813C61.0457 65.0505 60.9149 64.8391 60.747 64.6589C60.5791 64.4787 60.3773 64.3334 60.1533 64.2312C59.9292 64.129 59.6872 64.0719 59.441 64.0632C59.1949 64.0546 58.9495 64.0945 58.7188 64.1806C54.8563 65.6206 52.1056 66.3294 49.5744 66.3594C47.0863 66.3913 44.6469 65.7688 41.4275 64.2425C40.978 64.0297 40.4623 64.0041 39.9939 64.1715C39.5255 64.3389 39.1428 64.6855 38.93 65.135C38.7172 65.5846 38.6916 66.1002 38.859 66.5686C39.0264 67.037 39.373 67.4197 39.8225 67.6325C43.3663 69.3106 46.3831 70.1488 49.6213 70.1094C52.8144 70.07 56.0581 69.1756 60.0313 67.6944Z" fill="white"/>
<defs>
<linearGradient id="paint0_linear_1_9" x1="50" y1="0" x2="50" y2="100" gradientUnits="userSpaceOnUse">
<stop stop-color="#00C6EB"/>
<stop offset="1" stop-color="#0687E5"/>
</linearGradient>
</defs>
</svg>
